<svg xmlns="http://www.w3.org/2000/svg" xmlns:xlink="http://www.w3.org/1999/xlink" version="1.0" x="0px" y="0px" viewBox="0 0 90 112.5" enable-background="new 0 0 90 90" xml:space="preserve"><g><path d="M45,0C29.468,0,16.875,12.593,16.875,28.125c0,0.865,0.054,1.763,0.136,2.675c0.011,0.143,0.029,0.284,0.044,0.425   C19.335,54.053,45.006,90,45.006,90s26.008-31.292,27.932-58.728c0.117-1.035,0.187-2.082,0.187-3.146C73.124,12.593,60.532,0,45,0   z M45.006,49.095c-11.583,0-20.972-9.387-20.972-20.969c0-11.583,9.389-20.972,20.972-20.972c11.581,0,20.972,9.389,20.972,20.972   C65.978,39.708,56.587,49.095,45.006,49.095z"/></g><text x="0" y="105" fill="#000000" font-size="5px" font-weight="bold" font-family="'Helvetica Neue', Helvetica, Arial-Unicode, Arial, Sans-serif">Created by Bastian König</text><text x="0" y="110" fill="#000000" font-size="5px" font-weight="bold" font-family="'Helvetica Neue', Helvetica, Arial-Unicode, Arial, Sans-serif">from the Noun Project</text></svg>